<svg width="100" height="100" viewBox="0 0 100 100" fill="none" xmlns="http://www.w3.org/2000/svg">
  <style>
    svg {
      background: white;
    }
    path {
      fill: #333;
    }
    @media (prefers-color-scheme: dark) {
      svg {
        background: #333;
      }
      path {
        fill: white;
      }
    }
  </style>
<path d="M49.6705 44.32C49.6705 30.75 60.8705 24.57 76.3205 24.57C84.728 24.57 96.3905 22.03 99.8705 20V41.96C99.8705 58.3 86.4505 63.98 75.1605 63.98C63.8705 63.98 55.3605 70.02 49.6705 80C49.7105 64.32 49.6705 53.53 49.6705 44.32ZM85.5605 56.39C88.2405 52.25 89.5605 48.35 88.5905 43.48C87.4405 38.03 83.5605 33.64 78.3705 31.91C76.6105 31.3 75.6105 31.2 73.5705 31.2C67.0205 31.71 61.7005 35.13 59.3405 40.81C57.7405 45.35 57.9205 49.63 59.7405 53.5C61.1805 56.34 63.4205 58.63 65.9805 60.14C70.3505 55.04 82.3305 55.55 85.5405 56.43L85.5605 56.39ZM14.3805 56.33C13.8805 55.72 12.9505 54.2 12.6105 53.53C10.7505 49.75 10.4805 45.16 11.9105 41.26C13.4905 36.93 16.9005 33.49 21.1305 31.95C24.0005 30.91 27.1605 30.75 30.0905 31.44C35.4105 32.78 39.6805 37.03 41.1605 42.43C42.5305 47.42 41.2205 53 37.7805 56.9C36.6205 58.21 34.3705 59.99 33.9005 59.96C29.2905 55.25 19.3505 54.95 14.4005 56.3L14.3805 56.33Z" />
</svg>

