<?xml version="1.0" encoding="UTF-8" standalone="no"?>
<!-- Created with Inkscape (http://www.inkscape.org/) -->

<svg
   xmlns:dc="http://purl.org/dc/elements/1.1/"
   xmlns:cc="http://creativecommons.org/ns#"
   xmlns:rdf="http://www.w3.org/1999/02/22-rdf-syntax-ns#"
   xmlns:svg="http://www.w3.org/2000/svg"
   xmlns="http://www.w3.org/2000/svg"
   xmlns:sodipodi="http://sodipodi.sourceforge.net/DTD/sodipodi-0.dtd"
   xmlns:inkscape="http://www.inkscape.org/namespaces/inkscape"
   id="svg4884"
   version="1.1"
   inkscape:version="0.48.4 r9939"
   width="1000"
   height="595"
   sodipodi:docname="logo-invert.svg"
   inkscape:export-filename="/win/groselan/Programming/soreine.github.io/working/logo.png"
   inkscape:export-xdpi="81"
   inkscape:export-ydpi="81">
  <metadata
     id="metadata4890">
    <rdf:RDF>
      <cc:Work
         rdf:about="">
        <dc:format>image/svg+xml</dc:format>
        <dc:type
           rdf:resource="http://purl.org/dc/dcmitype/StillImage" />
        <dc:title></dc:title>
      </cc:Work>
    </rdf:RDF>
  </metadata>
  <defs
     id="defs4888" />
  <sodipodi:namedview
     pagecolor="#ffffff"
     bordercolor="#666666"
     borderopacity="1"
     objecttolerance="10"
     gridtolerance="10"
     guidetolerance="10"
     inkscape:pageopacity="0"
     inkscape:pageshadow="2"
     inkscape:window-width="956"
     inkscape:window-height="1028"
     id="namedview4886"
     showgrid="false"
     inkscape:object-paths="false"
     inkscape:zoom="0.45254834"
     inkscape:cx="554.68255"
     inkscape:cy="-53.653248"
     inkscape:window-x="960"
     inkscape:window-y="26"
     inkscape:window-maximized="0"
     inkscape:current-layer="svg4884" />
  <path
     style="fill:#ffffff;fill-opacity:1"
     d="m 0.00295184,-1.6e-6 0,56.6250006 c 0.0103,-18.46202 0.0348,-37.2118 0.0312,-56.5625006 C 32.359752,18.713399 156.74305,45.812499 228.65915,45.812499 95.723352,60.168499 15.989152,118.602 1.0341518,221.5625 0.02892184,164.6018 -0.02803816,112.01107 0.00290184,56.624999 l 0,538.375001 498.03124816,0 c 0.35982,-155.50122 1.6e-4,-262.47908 0,-353.78125 0,-134.5232 145.69888,-195.843751 266.46878,-195.843751 69.6768,0 200.71155,-25.1562 235.50007,-45.3750006 l -1000.00009816,0 z M 498.0342,595 l 501.9688,0 0,-377.21875 c 0,215.4983 -166.09942,218.375 -247.06252,218.375 -92.7692,0 -198.01515,59.92905 -254.90628,158.84375 z M 265.6592,109.1875 c 12.30958,-0.016 24.60086,1.4047 36.5,4.21875 53.1823,13.2515 95.8523,55.4015 110.6875,109 13.6954,49.4925 0.63725,104.79835 -33.78125,143.46875 -11.5962,12.9504 -34.08275,30.64495 -38.78125,30.34375 -46.0846,-46.6815 -145.4964,-49.69575 -195,-36.34375 l -0.1875,0.40625 c -4.9983,-6.0235 -14.2886,-21.0863 -17.6875,-27.8125 -18.5938,-37.4457 -21.2952,-83.027 -7,-121.6875 15.7948,-42.9671 49.9016,-77.08445 92.1875,-92.34375 17.03498,-6.13955 35.07157,-9.22663 53.0625,-9.25 z m 471.40628,1.9375 c -65.47828,5.0196 -118.7491,38.96215 -142.28128,95.28125 -15.99469,44.975 -14.19396,87.4231 4,125.8125 14.39522,28.1093 36.81475,50.9168 62.40625,65.875 43.68553,-50.5968 163.51313,-45.47745 195.56253,-36.84375 l 0.1875,-0.375 c 26.7911,-41.0598 40.0093,-79.7123 30.3125,-128 -11.4962,-54.0102 -50.296,-97.59215 -102.2188,-114.71875 -17.5941,-6.0234 -27.5755,-7.03125 -47.9687,-7.03125 z"
     id="path5882"
     inkscape:connector-curvature="0" />
</svg>
