<?xml version="1.0" encoding="UTF-8" standalone="no"?>
<!-- Created with Inkscape (http://www.inkscape.org/) -->

<svg
   xmlns:dc="http://purl.org/dc/elements/1.1/"
   xmlns:cc="http://creativecommons.org/ns#"
   xmlns:rdf="http://www.w3.org/1999/02/22-rdf-syntax-ns#"
   xmlns:svg="http://www.w3.org/2000/svg"
   xmlns="http://www.w3.org/2000/svg"
   xmlns:sodipodi="http://sodipodi.sourceforge.net/DTD/sodipodi-0.dtd"
   xmlns:inkscape="http://www.inkscape.org/namespaces/inkscape"
   id="svg4884"
   version="1.1"
   inkscape:version="0.48.4 r9939"
   width="100"
   height="60"
   sodipodi:docname="logo.svg"
   inkscape:export-filename="/win/groselan/Programming/soreine.github.io/working/logo.png"
   inkscape:export-xdpi="81"
   inkscape:export-ydpi="81">
  <metadata
     id="metadata4890">
    <rdf:RDF>
      <cc:Work
         rdf:about="">
        <dc:format>image/svg+xml</dc:format>
        <dc:type
           rdf:resource="http://purl.org/dc/dcmitype/StillImage" />
        <dc:title />
      </cc:Work>
    </rdf:RDF>
  </metadata>
  <defs
     id="defs4888" />
  <sodipodi:namedview
     pagecolor="#ffffff"
     bordercolor="#666666"
     borderopacity="1"
     objecttolerance="10"
     gridtolerance="10"
     guidetolerance="10"
     inkscape:pageopacity="0"
     inkscape:pageshadow="2"
     inkscape:window-width="1920"
     inkscape:window-height="1030"
     id="namedview4886"
     showgrid="false"
     inkscape:object-paths="false"
     inkscape:zoom="2.56"
     inkscape:cx="-87.68585"
     inkscape:cy="79.262424"
     inkscape:window-x="0"
     inkscape:window-y="26"
     inkscape:window-maximized="1"
     inkscape:current-layer="svg4884" />
  <path
     style="fill:#000000"
     d="m 49.801678,24.324091 c 0,-13.565365 14.572048,-19.7487431 26.649035,-19.7487431 6.967684,0 20.07044,-2.5364773 23.549286,-4.5753479 0,5.1730689 0,14.747355 0,21.962299 0,16.344756 -16.609479,22.019435 -24.705789,22.019435 -9.276917,0 -19.803419,6.043674 -25.492532,16.018266 0.03599,-15.684202 0,-26.472716 0,-35.680971 z m 35.893074,12.065092 c 2.679114,-4.140484 3.998671,-8.038003 3.028992,-12.907351 -1.149612,-5.446407 -5.028325,-9.83996 -10.2206,-11.567012 -1.759416,-0.607402 -2.759083,-0.708645 -4.798405,-0.708645 -6.547825,0.506178 -11.872055,3.927882 -14.225273,9.607119 -1.599469,4.535294 -1.419529,8.817489 0.399867,12.688689 1.439522,2.834551 3.678777,5.132562 6.237927,6.640951 4.368549,-5.102198 16.353565,-4.585916 19.558503,-3.71529 z m -71.184344,-0.05872 c -0.49983,-0.607412 -1.42952,-2.125916 -1.76941,-2.804188 -1.85938,-3.776037 -2.12929,-8.372058 -0.69977,-12.270595 1.57948,-4.332817 4.98834,-7.77478 9.21693,-9.313533 2.86905,-1.042719 6.02801,-1.204679 8.95703,-0.506168 5.31823,1.336286 9.58681,5.588117 11.07033,10.993008 1.36954,4.990841 0.06297,10.567836 -3.37888,14.467372 -1.15962,1.305922 -3.40887,3.08763 -3.87872,3.057257 -4.60846,-4.707378 -14.54816,-5.011089 -19.49852,-3.664669 z M 0.00322845,0.00514286 C 3.2357885,1.8859059 15.673018,4.6208874 22.864628,4.6208874 9.5710486,6.0685513 1.5986985,11.96037 0.10319845,22.342941 c -0.13403,-7.658581 -0.09853,-14.5324738 -0.09997,-22.33779814 z"
     id="path5882"
     inkscape:connector-curvature="0"
     sodipodi:nodetypes="csccccccssccccccscssssccscccccc" />
</svg>
